<?xml version="1.0"?>
<svg width="24" height="24" xmlns="http://www.w3.org/2000/svg" xmlns:svg="http://www.w3.org/2000/svg" data-name="Layer 1">
 <g class="layer">
  <title>Layer 1</title>
  <path d="m16.55,12.1c2.52,-2.26 4,-4.76 4.41,-7.45c0.17,-1.13 -0.17,-2.28 -0.92,-3.16c-0.77,-0.88 -1.88,-1.39 -3.04,-1.39l-10,0c-1.16,0 -2.27,0.51 -3.04,1.39c-0.75,0.88 -1.09,2.03 -0.92,3.16c0.41,2.7 1.89,5.2 4.41,7.45c-2.52,2.24 -4,4.74 -4.41,7.44c-0.17,1.13 0.17,2.28 0.92,3.16c0.77,0.89 1.88,1.39 3.04,1.39l9.99,0c1.17,0 2.28,-0.5 3.05,-1.39c0.75,-0.88 1.08,-2.02 0.92,-3.16c-0.41,-2.69 -1.89,-5.19 -4.41,-7.45l0,0.01zm1.97,9.29c-0.38,0.45 -0.94,0.71 -1.52,0.71l-10,0c-0.58,0 -1.14,-0.26 -1.52,-0.71c-0.38,-0.44 -0.54,-0.99 -0.46,-1.55c0.38,-2.5 1.92,-4.84 4.6,-6.96c0.24,-0.19 0.38,-0.48 0.38,-0.78s-0.14,-0.6 -0.38,-0.79c-2.68,-2.12 -4.22,-4.46 -4.6,-6.96c-0.08,-0.56 0.08,-1.11 0.46,-1.55c0.38,-0.45 0.94,-0.7 1.52,-0.7l9.99,0c0.59,0 1.15,0.25 1.53,0.7c0.38,0.44 0.54,0.99 0.46,1.55c-0.38,2.49 -1.92,4.83 -4.6,6.96c-0.24,0.19 -0.38,0.48 -0.38,0.79s0.14,0.59 0.38,0.78c2.68,2.13 4.23,4.47 4.6,6.96c0.08,0.56 -0.08,1.12 -0.46,1.55zm-1.91,-15.92c0.12,-0.31 0.09,-0.66 -0.1,-0.93c-0.19,-0.28 -0.5,-0.44 -0.83,-0.44l-7.36,0c-0.34,0 -0.65,0.16 -0.83,0.44c-0.19,0.27 -0.22,0.62 -0.1,0.93c0.75,1.85 2.3,3.35 3.47,4.27l0.52,0.41c0.18,0.15 0.4,0.22 0.62,0.22s0.44,-0.07 0.62,-0.22l0.51,-0.4c1.18,-0.94 2.73,-2.44 3.48,-4.28zm-4.61,2.62c-0.63,-0.51 -1.37,-1.19 -1.97,-1.99l3.93,0c-0.59,0.79 -1.33,1.48 -1.96,1.99z" fill="#ffffff" id="svg_1"/>
 </g>
</svg>