<?xml version="1.0"?>
<svg width="512" height="512" xmlns="http://www.w3.org/2000/svg" xmlns:svg="http://www.w3.org/2000/svg" enable-background="new 0 0 512 512" version="1.1" xml:space="preserve">
 <g class="layer">
  <title>Layer 1</title>
  <g id="_01_align_center">
   <path d="m255.1,512.17l-14.87,-12.75c-20.5,-17.16 -199.51,-171.76 -199.51,-284.84c0,-118.4 95.99,-214.38 214.38,-214.38s214.38,95.98 214.38,214.38c0,113.08 -179,267.68 -199.42,284.93l-14.96,12.66zm0,-465.62c-92.75,0.11 -167.91,75.27 -168.02,168.03c0,71.04 110.13,184.53 168.02,236.47c57.9,-51.97 168.03,-165.52 168.03,-236.47c-0.11,-92.76 -75.27,-167.92 -168.03,-168.03z" fill="#ffffff" id="svg_1" transform="matrix(1 0 0 1 0 0)"/>
   <path d="m255.1,299.56c-46.93,0 -84.97,-38.05 -84.97,-84.98s38.04,-84.98 84.97,-84.98s84.98,38.04 84.98,84.98s-38.04,84.98 -84.98,84.98zm0,-127.47c-23.46,0 -42.48,19.02 -42.48,42.49s19.02,42.48 42.48,42.48s42.49,-19.02 42.49,-42.48s-19.02,-42.49 -42.49,-42.49z" fill="#ffffff" id="svg_2"/>
  </g>
 </g>
</svg>