<?xml version="1.0"?>
<svg width="24" height="24" xmlns="http://www.w3.org/2000/svg" xmlns:svg="http://www.w3.org/2000/svg" data-name="Layer 1">
 <g class="layer">
  <title>Layer 1</title>
  <path d="m22.56,1.44c-2.37,-2.38 -5.92,-1.8 -10.56,1.7c-4.64,-3.5 -8.19,-4.08 -10.56,-1.7s-1.8,5.92 1.7,10.56c-3.5,4.64 -4.08,8.19 -1.7,10.56a4.7,4.7 0 0 0 3.44,1.44c1.97,0 4.35,-1.05 7.12,-3.14c2.77,2.09 5.15,3.14 7.12,3.14a4.7,4.7 0 0 0 3.44,-1.44c2.38,-2.37 1.8,-5.92 -1.7,-10.56c3.5,-4.64 4.08,-8.19 1.7,-10.56zm-3.48,0.59a2.81,2.81 0 0 1 2.07,0.82c1.75,1.74 0.46,4.71 -1.59,7.54c-0.83,-0.99 -1.78,-2.02 -2.85,-3.1s-2.11,-2.02 -3.1,-2.86c1.9,-1.37 3.86,-2.4 5.47,-2.4zm-0.77,9.97c-1.01,1.22 -2.08,2.36 -3.02,3.3s-2.07,2 -3.29,3.01c-1.22,-1.01 -2.36,-2.08 -3.3,-3.01s-2,-2.08 -3.01,-3.3c1.01,-1.22 2.08,-2.36 3.01,-3.29s2.08,-2.01 3.3,-3.02c1.22,1.01 2.36,2.08 3.3,3.02s2,2.07 3.01,3.29zm-15.46,-9.15a2.8,2.8 0 0 1 2.06,-0.82c1.62,0 3.58,1.03 5.48,2.4c-0.99,0.84 -2.02,1.79 -3.1,2.86s-2.02,2.1 -2.86,3.1c-2.04,-2.83 -3.33,-5.8 -1.58,-7.54zm0,18.3c-1.75,-1.75 -0.46,-4.71 1.58,-7.54c0.84,0.99 1.79,2.02 2.86,3.09s2.1,2.03 3.09,2.86c-2.82,2.05 -5.79,3.34 -7.53,1.59zm18.3,0c-1.75,1.74 -4.71,0.46 -7.54,-1.59c0.99,-0.83 2.02,-1.78 3.09,-2.86s2.02,-2.1 2.86,-3.09c2.05,2.83 3.34,5.8 1.59,7.54z" fill="#ffffff" id="svg_1" transform="matrix(1 0 0 1 0 0)"/>
  <circle cx="12" cy="12" fill="#ffffff" id="svg_2" r="2"/>
 </g>
</svg>