<?xml version="1.0"?>
<svg width="24" height="24" xmlns="http://www.w3.org/2000/svg" xmlns:svg="http://www.w3.org/2000/svg" data-name="Layer 1">
 <g class="layer">
  <title>Layer 1</title>
  <path d="m12,0c-6.62,0 -12,5.38 -12,12s5.38,12 12,12l12,0l0,-12c0,-6.62 -5.38,-12 -12,-12zm10,22l-10,0c-5.51,0 -10,-4.49 -10,-10s4.49,-10 10,-10s10,4.49 10,10l0,10zm-8.5,-10c0,0.83 -0.67,1.5 -1.5,1.5s-1.5,-0.67 -1.5,-1.5s0.67,-1.5 1.5,-1.5s1.5,0.67 1.5,1.5zm5,0c0,0.83 -0.67,1.5 -1.5,1.5s-1.5,-0.67 -1.5,-1.5s0.67,-1.5 1.5,-1.5s1.5,0.67 1.5,1.5zm-10,0c0,0.83 -0.67,1.5 -1.5,1.5s-1.5,-0.67 -1.5,-1.5s0.67,-1.5 1.5,-1.5s1.5,0.67 1.5,1.5z" fill="#ffffff" id="svg_1"/>
 </g>
</svg>