<?xml version="1.0"?>
<svg width="24" height="24" xmlns="http://www.w3.org/2000/svg" xmlns:svg="http://www.w3.org/2000/svg" data-name="Layer 1">
 <g class="layer">
  <title>Layer 1</title>
  <path d="m21,2l-3,0l0,-2l-2,0l0,2l-8,0l0,-2l-2,0l0,2l-3,0c-1.65,0 -3,1.35 -3,3l0,19l24,0l0,-19c0,-1.65 -1.35,-3 -3,-3zm-18,2l18,0c0.55,0 1,0.45 1,1l0,2l-20,0l0,-2c0,-0.55 0.45,-1 1,-1zm13,5l0,3l-3,0l0,-3l3,0zm-5,3l-3,0l0,-3l3,0l0,3zm-5,0l-4,0l0,-3l4,0l0,3zm0,2l0,3l-4,0l0,-3l4,0zm2,0l3,0l0,3l-3,0l0,-3zm3,5l0,3l-3,0l0,-3l3,0zm2,0l3,0l0,3l-3,0l0,-3zm0,-2l0,-3l3,0l0,3l-3,0zm5,-3l4,0l0,3l-4,0l0,-3zm0,-2l0,-3l4,0l0,3l-4,0zm-16,7l4,0l0,3l-4,0l0,-3zm16,3l0,-3l4,0l0,3l-4,0z" fill="#ffffff" id="svg_1"/>
 </g>
</svg>