<?xml version="1.0"?>
<svg width="24" height="24" xmlns="http://www.w3.org/2000/svg" xmlns:svg="http://www.w3.org/2000/svg" data-name="Layer 1">
 <g class="layer">
  <title>Layer 1</title>
  <path d="m12,16a4,4 0 1 1 4,-4a4,4 0 0 1 -4,4zm0,-6a2,2 0 1 0 2,2a2,2 0 0 0 -2,-2zm6,13a6,6 0 0 0 -12,0a1,1 0 0 0 2,0a4,4 0 0 1 8,0a1,1 0 0 0 2,0zm0,-15a4,4 0 1 1 4,-4a4,4 0 0 1 -4,4zm0,-6a2,2 0 1 0 2,2a2,2 0 0 0 -2,-2zm6,13a6.01,6.01 0 0 0 -6,-6a1,1 0 0 0 0,2a4,4 0 0 1 4,4a1,1 0 0 0 2,0zm-18,-7a4,4 0 1 1 4,-4a4,4 0 0 1 -4,4zm0,-6a2,2 0 1 0 2,2a2,2 0 0 0 -2,-2zm-4,13a4,4 0 0 1 4,-4a1,1 0 0 0 0,-2a6.01,6.01 0 0 0 -6,6a1,1 0 0 0 2,0z" fill="#ffffff" id="svg_1"/>
 </g>
</svg>